<svg width="157" height="78" fill="none" xmlns="http://www.w3.org/2000/svg">
<path d="M129.89 26.2544C128.11 26.2544 126.37 26.4325 124.69 26.7692C119.512 11.2233 104.744 0 87.3236 0C72.6938 0 59.9387 7.917 53.1566 19.6573C52.7583 19.6417 52.3592 19.627 51.9567 19.627C41.7759 19.627 32.8025 24.7472 27.5128 32.5303C26.0988 32.263 24.6411 32.1174 23.1487 32.1174C10.364 32.1174 0 42.3882 0 55.0593C0 67.73 10.364 78 23.1491 78H51.9376H51.9571H51.9766H87.3041H87.3236H87.344H129.873H129.893C144.315 78 156.002 66.417 156.002 52.1257C156.002 37.8378 144.315 26.2544 129.893 26.2544H129.89Z" fill="url(#paint0_linear_107_142)"/>
<defs>
<linearGradient id="paint0_linear_107_142" x1="1" y1="59" x2="156" y2="60" gradientUnits="userSpaceOnUse">
<stop offset="0.073644" stop-color="white"/>
<stop offset="1" stop-color="white" stop-opacity="0"/>
</linearGradient>
</defs>
</svg>

