<svg width="2028" height="664" viewBox="0 0 2028 664" fill="none" xmlns="http://www.w3.org/2000/svg">
<path d="M752.912 432L852.072 560.25H653.752L752.912 432Z" fill="#3D3D3D"/>
<path d="M526.52 432L402.412 586H729.412L526.52 432Z" fill="#3D3D3D"/>
<path d="M726.412 432L792.23 560.25H660.594L726.412 432Z" fill="#3D3D3D"/>
<path d="M676.912 407L608.063 560.75H745.761L676.912 407Z" fill="#3D3D3D"/>
<path d="M1078.91 369L1227.44 562.5H930.389L1078.91 369Z" fill="#3D3D3D"/>
<path d="M890.778 330L797.412 563H1043.41L890.778 330Z" fill="#3D3D3D"/>
<path d="M825.823 470L753.332 566H944.332L825.823 470Z" fill="#3D3D3D"/>
<path d="M1038.91 368L1138.07 561.5H939.752L1038.91 368Z" fill="#3D3D3D"/>
<path d="M1074.41 286L1247.62 569.5H901.207L1074.41 286Z" fill="#3D3D3D"/>
<path d="M964.912 330L861.422 562.5H1068.4L964.912 330Z" fill="#3D3D3D"/>
<path d="M1247.91 330L1112.38 562.5H1383.44L1247.91 330Z" fill="#3D3D3D"/>
<path d="M1467.37 0L1108.72 569.449H1826.02L1467.37 0Z" fill="#73818B"/>
<path d="M1468.34 0.0078125L1340.57 201.802L1397 212.45L1420.19 185.663L1436.54 163.402L1468.34 185.663L1519.57 150.045L1591.53 199.464L1468.34 0.0078125Z" fill="white"/>
<path d="M1468.48 0.00800796L1439.72 45.7354L1756.77 569.988L1824.65 569.988L1468.48 0.00800796Z" fill="#383838" fill-opacity="0.22"/>
<path d="M1456.01 246.194L1230.85 569.644H1321.35H1681.37L1456.01 246.194Z" fill="#5F6163"/>
<path d="M1456.47 245.112L1376.19 359.732L1404.35 358.404L1426.21 350.565L1436.49 337.921L1473.02 358.404L1489.55 322.272L1533.88 358.404L1456.47 245.112Z" fill="white"/>
<path d="M1456.56 245.112L1438.48 271.085L1637.71 568.864L1680.36 568.864L1456.56 245.112Z" fill="#383838" fill-opacity="0.22"/>
<path d="M1735.61 60L1493.41 570L1890.41 565.425L1735.61 60Z" fill="#73818B"/>
<path d="M1734.94 58L1669.41 199.982V265L1700.91 224.933L1725.3 192.907L1747.15 237.343H1759.85L1795.41 254.482L1734.94 58Z" fill="white"/>
<path d="M1736.39 58.2632L1717.2 97.3148L1846.91 519.346L1874.91 519.346L1736.39 58.2632Z" fill="#383838" fill-opacity="0.22"/>
<path d="M1197.72 154.699L908.68 569.915H1024.86H1487.02L1197.72 154.699Z" fill="#5F6163"/>
<path d="M1197.8 154.705L1094.74 301.843L1140.25 309.607L1158.96 290.075L1172.15 273.844L1197.8 290.075L1239.12 264.105L1297.17 300.139L1197.8 154.705Z" fill="white"/>
<path d="M1197.91 154.705L1174.71 188.047L1430.46 570.308L1485.21 570.308L1197.91 154.705Z" fill="#383838" fill-opacity="0.22"/>
<path d="M2026.41 239L1801.41 563H1891.85H2026.41V239Z" fill="#5F6163"/>
<path d="M2027.41 211L1976.41 300.705L1994.76 297.233L2001.18 322L2016.69 305.756L2027.41 322V292.72V271.662L2027.41 246.092L2027.41 211Z" fill="white"/>
<path d="M2025 663.5L2 663.5C1.17151 663.5 0.499878 662.828 0.499878 662V562C0.499878 561.172 1.17151 560.5 1.99988 560.5L2025 560.5C2025.83 560.5 2026.5 561.172 2026.5 562V662C2026.5 662.828 2025.83 663.5 2025 663.5Z" fill="#5FA762" stroke="#80BD83"/>
<path d="M982.223 574.165C982.223 577.052 979.881 579.394 976.994 579.394C974.106 579.394 971.764 577.055 971.764 574.165V514.325C971.764 511.438 974.104 509.093 976.994 509.093C979.881 509.093 982.223 511.435 982.223 514.325V574.165Z" fill="#FF7526"/>
<path d="M983.462 494.487H1025.8L982.872 451.549H1009.33L976.991 401.886L944.65 451.549H971.112L928.187 494.487H970.525L921.426 537.684H976.991H1032.56L983.462 494.487Z" fill="#3EAD26"/>
<path opacity="0.1" d="M976.991 401.886L944.65 451.549H971.11L928.187 494.487H970.525L921.426 537.684H971.764V574.165C971.764 577.052 974.104 579.394 976.994 579.394L976.991 401.886Z" fill="white"/>
<path d="M1137.95 575.318C1137.95 578.024 1135.89 580.221 1133.34 580.221C1130.8 580.221 1128.73 578.024 1128.73 575.318V518.384C1128.73 515.676 1130.8 513.482 1133.34 513.482C1135.89 513.482 1137.95 515.676 1137.95 518.384V575.318Z" fill="#FF7526"/>
<path d="M1139.05 499.79H1176.39L1138.53 459.547H1161.87L1133.34 413L1104.82 459.547H1128.15L1090.29 499.79H1127.64L1084.33 540.279H1133.34H1182.35L1139.05 499.79Z" fill="#3EAD26"/>
<path opacity="0.1" d="M1133.34 413L1104.82 459.547H1128.15L1090.29 499.79H1127.64L1084.33 540.279H1128.73V575.318C1128.73 578.024 1130.8 580.221 1133.34 580.221V413Z" fill="white"/>
<path d="M1049.33 588.42C1049.33 590.866 1047.34 592.85 1044.9 592.85C1042.45 592.85 1040.47 590.866 1040.47 588.42V534.54C1040.47 532.094 1042.45 530.113 1044.9 530.113C1047.34 530.113 1049.33 532.094 1049.33 534.54V588.42Z" fill="#FF7526"/>
<path d="M1050.37 517.74H1086.23L1049.88 481.374H1072.29L1044.9 439.314L1017.51 481.374H1039.92L1003.56 517.74H1039.42L997.837 554.324H1044.9H1091.96L1050.37 517.74Z" fill="#299113"/>
<path opacity="0.1" d="M1044.9 439.314L1017.51 481.374H1039.92L1003.56 517.74H1039.42L997.837 554.324H1040.47V588.42C1040.47 590.866 1042.45 592.847 1044.9 592.847V439.314Z" fill="white"/>
<path d="M898.983 568.854C898.983 570.841 897.373 572.451 895.387 572.451C893.4 572.451 891.79 570.841 891.79 568.854V522.691C891.79 520.705 893.4 519.095 895.387 519.095C897.373 519.095 898.983 520.705 898.983 522.691V568.854Z" fill="#FF7526"/>
<path d="M899.835 509.046H928.953L899.43 479.515H917.629L895.387 445.353L873.141 479.515H891.341L861.817 509.046H890.936L857.167 538.757H895.387H933.606L899.835 509.046Z" fill="#299113"/>
<path opacity="0.1" d="M895.387 445.353L873.141 479.515H891.341L861.817 509.046H890.939L857.167 538.757H891.79V568.854C891.79 570.841 893.4 572.451 895.387 572.451V445.353Z" fill="white"/>
<path d="M1204.9 580.025C1204.9 582.014 1203.29 583.624 1201.31 583.624C1199.32 583.624 1197.71 582.014 1197.71 580.025V533.862C1197.71 531.873 1199.32 530.263 1201.31 530.263C1203.29 530.263 1204.9 531.873 1204.9 533.862V580.025Z" fill="#FF7526"/>
<path d="M1205.75 520.217H1234.88L1205.35 490.683H1223.55L1201.3 456.527L1179.06 490.683H1197.26L1167.73 520.217H1196.86L1163.08 549.93H1201.3H1239.53L1205.75 520.217Z" fill="#299113"/>
<path opacity="0.1" d="M1201.3 456.527L1179.06 490.683H1197.26L1167.73 520.217H1196.86L1163.08 549.93H1197.71V580.025C1197.71 582.014 1199.32 583.624 1201.3 583.624V456.527Z" fill="white"/>
<path d="M889.022 553.36C869.309 553.36 853.332 569.337 853.332 589.048H924.71C924.71 569.337 908.731 553.36 889.022 553.36Z" fill="#3EAD26"/>
<path opacity="0.1" d="M889.022 553.36C869.309 553.36 853.332 569.337 853.332 589.048H889.022V553.36Z" fill="white"/>
<path d="M941.386 563.669C927.369 563.669 916.004 575.032 916.004 589.048H966.765C966.765 575.032 955.403 563.669 941.386 563.669Z" fill="#3EAD26"/>
<path opacity="0.1" d="M941.386 563.669C927.369 563.669 916.004 575.032 916.004 589.048H941.386V563.669Z" fill="white"/>
<path d="M912.026 563.692C898.02 563.692 886.667 575.045 886.667 589.051H937.385C937.385 575.045 926.032 563.692 912.026 563.692Z" fill="#299113"/>
<path opacity="0.1" d="M912.026 563.692C898.02 563.692 886.667 575.045 886.667 589.051H912.026V563.692Z" fill="white"/>
<path d="M1235.69 561.306C1252.06 561.306 1265.33 574.572 1265.33 590.942H1206.06C1206.06 574.572 1219.33 561.306 1235.69 561.306Z" fill="#3EAD26"/>
<path opacity="0.1" d="M1235.69 561.306C1252.06 561.306 1265.33 574.572 1265.33 590.942H1235.69V561.306Z" fill="white"/>
<path d="M1197.53 569.865C1209.17 569.865 1218.61 579.303 1218.61 590.942H1176.46C1176.46 579.301 1185.89 569.865 1197.53 569.865Z" fill="#3EAD26"/>
<path opacity="0.1" d="M1197.53 569.865C1209.17 569.865 1218.61 579.303 1218.61 590.942H1197.53V569.865Z" fill="white"/>
<path d="M1221.91 569.883C1233.54 569.883 1242.97 579.311 1242.97 590.939H1200.85C1200.85 579.311 1210.28 569.883 1221.91 569.883Z" fill="#299113"/>
<path opacity="0.1" d="M1221.91 569.883C1233.54 569.883 1242.97 579.311 1242.97 590.939H1221.91V569.883Z" fill="white"/>
<path d="M1073.59 571.812C1091.43 571.812 1105.9 586.275 1105.9 604.114H1041.29C1041.29 586.275 1055.75 571.812 1073.59 571.812Z" fill="#3EAD26"/>
<path opacity="0.1" d="M1073.59 571.812C1091.43 571.812 1105.9 586.275 1105.9 604.114H1073.59V571.812Z" fill="white"/>
<path d="M1032 581.142C1044.68 581.142 1054.97 591.427 1054.97 604.114H1009.02C1009.02 591.427 1019.31 581.142 1032 581.142Z" fill="#3EAD26"/>
<path opacity="0.1" d="M1032 581.142C1044.68 581.142 1054.97 591.427 1054.97 604.114H1032V581.142Z" fill="white"/>
<path d="M1058.57 581.163C1071.25 581.163 1081.52 591.437 1081.52 604.114H1035.62C1035.62 591.437 1045.89 581.163 1058.57 581.163Z" fill="#299113"/>
<path opacity="0.1" d="M1058.57 581.163C1071.25 581.163 1081.52 591.437 1081.52 604.114H1058.57V581.163Z" fill="white"/>
<path d="M1802.18 573.807C1802.18 575.379 1800.91 576.654 1799.33 576.654C1797.76 576.654 1796.49 575.38 1796.49 573.807V541.224C1796.49 539.651 1797.76 538.375 1799.33 538.375C1800.91 538.375 1802.18 539.65 1802.18 541.224V573.807Z" fill="#FF7526"/>
<path d="M1802.86 530.422H1825.91L1802.54 507.042H1816.94L1799.33 480L1781.72 507.042H1796.13L1772.76 530.422H1795.81L1769.08 553.943H1799.33H1829.59L1802.86 530.422Z" fill="#3EAD26"/>
<path opacity="0.1" d="M1799.33 480L1781.72 507.042H1796.13L1772.76 530.422H1795.81L1769.08 553.943H1796.49V573.806C1796.49 575.379 1797.76 576.654 1799.33 576.654L1799.33 480Z" fill="white"/>
<path d="M1886.98 574.435C1886.98 575.908 1885.85 577.104 1884.47 577.104C1883.08 577.104 1881.96 575.908 1881.96 574.435V543.434C1881.96 541.959 1883.08 540.765 1884.47 540.765C1885.85 540.765 1886.98 541.959 1886.98 543.434V574.435Z" fill="#FF7526"/>
<path d="M1887.57 533.309H1907.91L1887.29 511.397H1900L1884.47 486.052L1868.93 511.397H1881.64L1861.03 533.309H1881.36L1857.78 555.356H1884.47H1911.15L1887.57 533.309Z" fill="#3EAD26"/>
<path opacity="0.1" d="M1884.47 486.052L1868.93 511.397H1881.64L1861.03 533.309H1881.36L1857.78 555.356H1881.96V574.435C1881.96 575.908 1883.08 577.104 1884.47 577.104V486.052Z" fill="white"/>
<path d="M1838.72 581.569C1838.72 582.901 1837.64 583.981 1836.31 583.981C1834.98 583.981 1833.9 582.901 1833.9 581.569V552.231C1833.9 550.899 1834.98 549.82 1836.31 549.82C1837.64 549.82 1838.72 550.899 1838.72 552.231V581.569Z" fill="#FF7526"/>
<path d="M1839.29 543.083H1858.81L1839.02 523.282H1851.22L1836.31 500.38L1821.39 523.282H1833.6L1813.8 543.083H1833.33L1810.68 563.003H1836.31H1861.93L1839.29 543.083Z" fill="#299113"/>
<path opacity="0.1" d="M1836.31 500.38L1821.39 523.282H1833.6L1813.8 543.083H1833.33L1810.68 563.003H1833.9V581.569C1833.9 582.901 1834.98 583.979 1836.31 583.979V500.38Z" fill="white"/>
<path d="M1756.86 570.915C1756.86 571.997 1755.98 572.873 1754.9 572.873C1753.82 572.873 1752.94 571.997 1752.94 570.915V545.779C1752.94 544.697 1753.82 543.821 1754.9 543.821C1755.98 543.821 1756.86 544.697 1756.86 545.779V570.915Z" fill="#FF7526"/>
<path d="M1757.32 538.349H1773.18L1757.1 522.269H1767.01L1754.9 503.668L1742.79 522.269H1752.7L1736.62 538.349H1752.48L1734.09 554.527H1754.9H1775.71L1757.32 538.349Z" fill="#299113"/>
<path opacity="0.1" d="M1754.9 503.668L1742.79 522.269H1752.7L1736.62 538.349H1752.48L1734.09 554.527H1752.94V570.915C1752.94 571.997 1753.82 572.873 1754.9 572.873V503.668Z" fill="white"/>
<path d="M1923.43 576.998C1923.43 578.081 1922.56 578.957 1921.47 578.957C1920.39 578.957 1919.52 578.081 1919.52 576.998V551.862C1919.52 550.779 1920.39 549.902 1921.47 549.902C1922.56 549.902 1923.43 550.779 1923.43 551.862V576.998Z" fill="#FF7526"/>
<path d="M1923.9 544.432H1939.75L1923.68 528.35H1933.58L1921.47 509.752L1909.36 528.35H1919.27L1903.19 544.432H1919.05L1900.66 560.611H1921.47H1942.28L1923.9 544.432Z" fill="#299113"/>
<path opacity="0.1" d="M1921.47 509.752L1909.36 528.35H1919.27L1903.19 544.432H1919.05L1900.66 560.611H1919.51V576.998C1919.51 578.081 1920.39 578.957 1921.47 578.957V509.752Z" fill="white"/>
<path d="M1751.43 562.479C1740.7 562.479 1732 571.178 1732 581.911H1770.87C1770.87 571.178 1762.17 562.479 1751.43 562.479Z" fill="#3EAD26"/>
<path opacity="0.1" d="M1751.43 562.479C1740.7 562.479 1732 571.178 1732 581.911H1751.43V562.479Z" fill="white"/>
<path d="M1779.95 568.092C1772.31 568.092 1766.13 574.279 1766.13 581.911H1793.77C1793.77 574.279 1787.58 568.092 1779.95 568.092Z" fill="#3EAD26"/>
<path opacity="0.1" d="M1779.95 568.092C1772.31 568.092 1766.13 574.279 1766.13 581.911H1779.95V568.092Z" fill="white"/>
<path d="M1763.96 568.104C1756.33 568.104 1750.15 574.286 1750.15 581.912H1777.77C1777.77 574.286 1771.59 568.104 1763.96 568.104Z" fill="#299113"/>
<path opacity="0.1" d="M1763.96 568.104C1756.33 568.104 1750.15 574.286 1750.15 581.912H1763.96V568.104Z" fill="white"/>
<path d="M1940.2 566.805C1949.11 566.805 1956.34 574.028 1956.34 582.941H1924.06C1924.06 574.028 1931.29 566.805 1940.2 566.805Z" fill="#3EAD26"/>
<path opacity="0.1" d="M1940.2 566.805C1949.11 566.805 1956.34 574.028 1956.34 582.941H1940.2V566.805Z" fill="white"/>
<path d="M1919.42 571.465C1925.76 571.465 1930.9 576.605 1930.9 582.942H1907.94C1907.94 576.603 1913.08 571.465 1919.42 571.465Z" fill="#3EAD26"/>
<path opacity="0.1" d="M1919.42 571.465C1925.76 571.465 1930.9 576.605 1930.9 582.942H1919.42V571.465Z" fill="white"/>
<path d="M1932.69 571.475C1939.03 571.475 1944.16 576.609 1944.16 582.94H1921.23C1921.23 576.609 1926.36 571.475 1932.69 571.475Z" fill="#299113"/>
<path opacity="0.1" d="M1932.69 571.475C1939.03 571.475 1944.16 576.609 1944.16 582.94H1932.69V571.475Z" fill="white"/>
<path d="M1851.93 572.526C1861.65 572.526 1869.52 580.401 1869.52 590.114H1834.34C1834.34 580.401 1842.22 572.526 1851.93 572.526Z" fill="#3EAD26"/>
<path opacity="0.1" d="M1851.93 572.526C1861.65 572.526 1869.52 580.401 1869.52 590.114H1851.93V572.526Z" fill="white"/>
<path d="M1829.28 577.605C1836.19 577.605 1841.79 583.206 1841.79 590.114H1816.77C1816.77 583.206 1822.38 577.605 1829.28 577.605Z" fill="#3EAD26"/>
<path opacity="0.1" d="M1829.28 577.605C1836.19 577.605 1841.79 583.206 1841.79 590.114H1829.28V577.605Z" fill="white"/>
<path d="M1843.75 577.617C1850.66 577.617 1856.25 583.212 1856.25 590.114H1831.26C1831.26 583.212 1836.85 577.617 1843.75 577.617Z" fill="#299113"/>
<path opacity="0.1" d="M1843.75 577.617C1850.66 577.617 1856.25 583.212 1856.25 590.114H1843.75V577.617Z" fill="white"/>
<path d="M1321.25 574.045C1321.25 576.225 1319.69 577.993 1317.75 577.993C1315.82 577.993 1314.25 576.227 1314.25 574.045V528.875C1314.25 526.696 1315.82 524.926 1317.75 524.926C1319.69 524.926 1321.25 526.694 1321.25 528.875V574.045Z" fill="#FF7526"/>
<path d="M1322.08 513.9H1350.44L1321.69 481.488H1339.42L1317.75 444L1296.09 481.488H1313.81L1285.06 513.9H1313.42L1280.53 546.508H1317.75H1354.98L1322.08 513.9Z" fill="#3EAD26"/>
<path opacity="0.1" d="M1317.75 444L1296.09 481.488H1313.81L1285.06 513.9H1313.42L1280.53 546.508H1314.25V574.045C1314.25 576.225 1315.82 577.993 1317.75 577.993L1317.75 444Z" fill="white"/>
<path d="M1547.39 580.489C1547.39 581.872 1546.39 582.993 1545.17 582.993C1543.94 582.993 1542.94 581.873 1542.94 580.489V551.837C1542.94 550.455 1543.94 549.332 1545.17 549.332C1546.39 549.332 1547.39 550.453 1547.39 551.837V580.489Z" fill="#FF7526"/>
<path d="M1547.91 542.338H1565.9L1547.66 521.779H1558.91L1545.17 498L1531.42 521.779H1542.67L1524.43 542.338H1542.42L1521.55 563.022H1545.17H1568.78L1547.91 542.338Z" fill="#3EAD26"/>
<path opacity="0.1" d="M1545.17 498L1531.42 521.779H1542.67L1524.43 542.338H1542.42L1521.55 563.022H1542.94V580.489C1542.94 581.872 1543.94 582.993 1545.17 582.993L1545.17 498Z" fill="white"/>
<path d="M1423.97 566.919C1423.97 568.961 1422.59 570.619 1420.88 570.619C1419.18 570.619 1417.79 568.961 1417.79 566.919V523.942C1417.79 521.897 1419.18 520.241 1420.88 520.241C1422.59 520.241 1423.97 521.897 1423.97 523.942V566.919Z" fill="#FF7526"/>
<path d="M1424.71 509.906H1449.72L1424.36 479.528H1439.99L1420.88 444.392L1401.77 479.528H1417.41L1392.05 509.906H1417.06L1388.05 540.469H1420.88H1453.72L1424.71 509.906Z" fill="#3EAD26"/>
<path opacity="0.1" d="M1420.88 444.392L1401.77 479.528H1417.41L1392.05 509.906H1417.06L1388.05 540.469H1417.79V566.919C1417.79 568.961 1419.18 570.619 1420.88 570.619V444.392Z" fill="white"/>
<path d="M808.823 594.554C808.823 596.4 807.496 597.898 805.856 597.898C804.217 597.898 802.89 596.4 802.89 594.554V553.882C802.89 552.036 804.217 550.54 805.856 550.54C807.494 550.54 808.823 552.036 808.823 553.882V594.554Z" fill="#FF7526"/>
<path d="M809.526 541.2H833.546L809.192 513.749H824.205L805.856 482L787.508 513.749H802.521L778.167 541.2H802.187L774.332 568.816H805.856H837.381L809.526 541.2Z" fill="#299113"/>
<path opacity="0.1" d="M805.856 482L787.508 513.749H802.521L778.169 541.2H802.189L774.332 568.816H802.89V594.554C802.89 596.4 804.217 597.896 805.856 597.896V482Z" fill="white"/>
<path d="M1265.49 570.037C1265.49 571.537 1264.41 572.752 1263.08 572.752C1261.75 572.752 1260.68 571.537 1260.68 570.037V535.191C1260.68 533.691 1261.75 532.476 1263.08 532.476C1264.41 532.476 1265.49 533.691 1265.49 535.191V570.037Z" fill="#FF7526"/>
<path d="M1266.06 524.891H1285.57L1265.79 502.599H1277.98L1263.08 476.812L1248.18 502.599H1260.37L1240.6 524.891H1260.1L1237.48 547.318H1263.08H1288.69L1266.06 524.891Z" fill="#299113"/>
<path opacity="0.1" d="M1263.08 476.812L1248.18 502.599H1260.37L1240.6 524.891H1260.1L1237.48 547.318H1260.68V570.037C1260.68 571.537 1261.75 572.752 1263.08 572.752V476.812Z" fill="white"/>
<path d="M1470.42 578.469C1470.42 579.971 1469.35 581.186 1468.02 581.186C1466.69 581.186 1465.61 579.971 1465.61 578.469V543.623C1465.61 542.122 1466.69 540.906 1468.02 540.906C1469.35 540.906 1470.42 542.122 1470.42 543.623V578.469Z" fill="#FF7526"/>
<path d="M1471 533.323H1490.5L1470.72 511.029H1482.92L1468.01 485.246L1453.11 511.029H1465.31L1445.53 533.323H1465.03L1442.41 555.752H1468.01H1493.62L1471 533.323Z" fill="#299113"/>
<path opacity="0.1" d="M1468.01 485.246L1453.11 511.029H1465.31L1445.53 533.323H1465.03L1442.41 555.752H1465.6V578.469C1465.6 579.971 1466.68 581.186 1468.01 581.186V485.246Z" fill="white"/>
<path d="M1258.82 558.341C1245.61 558.341 1234.91 570.402 1234.91 585.281H1282.73C1282.73 570.402 1272.02 558.341 1258.82 558.341Z" fill="#3EAD26"/>
<path opacity="0.1" d="M1258.82 558.341C1245.61 558.341 1234.91 570.402 1234.91 585.281H1258.82V558.341Z" fill="white"/>
<path d="M1293.9 566.123C1284.51 566.123 1276.9 574.7 1276.9 585.281H1310.9C1310.9 574.7 1303.29 566.123 1293.9 566.123Z" fill="#3EAD26"/>
<path opacity="0.1" d="M1293.9 566.123C1284.51 566.123 1276.9 574.7 1276.9 585.281H1293.9V566.123Z" fill="white"/>
<path d="M1274.23 566.14C1264.85 566.14 1257.24 574.71 1257.24 585.283H1291.22C1291.22 574.71 1283.61 566.14 1274.23 566.14Z" fill="#299113"/>
<path opacity="0.1" d="M1274.23 566.14C1264.85 566.14 1257.24 574.71 1257.24 585.283H1274.23V566.14Z" fill="white"/>
<path d="M1491.05 564.339C1502.02 564.339 1510.91 574.353 1510.91 586.709H1471.2C1471.2 574.353 1480.09 564.339 1491.05 564.339Z" fill="#3EAD26"/>
<path opacity="0.1" d="M1491.05 564.339C1502.02 564.339 1510.91 574.353 1510.91 586.709H1491.05V564.339Z" fill="white"/>
<path d="M1465.49 570.8C1473.29 570.8 1479.61 577.924 1479.61 586.71H1451.37C1451.37 577.922 1457.69 570.8 1465.49 570.8Z" fill="#3EAD26"/>
<path opacity="0.1" d="M1465.49 570.8C1473.29 570.8 1479.61 577.924 1479.61 586.71H1465.49V570.8Z" fill="white"/>
<path d="M1481.82 570.813C1489.61 570.813 1495.93 577.93 1495.93 586.708H1467.71C1467.71 577.93 1474.03 570.813 1481.82 570.813Z" fill="#299113"/>
<path opacity="0.1" d="M1481.82 570.813C1489.61 570.813 1495.93 577.93 1495.93 586.708H1481.82V570.813Z" fill="white"/>
<path d="M1581.65 573C1592.61 573 1601.5 583.014 1601.5 595.37H1561.8C1561.8 583.014 1570.68 573 1581.65 573Z" fill="#3EAD26"/>
<path opacity="0.1" d="M1581.65 573C1592.61 573 1601.5 583.014 1601.5 595.37H1581.65V573Z" fill="white"/>
<path d="M1556.08 579.46C1563.88 579.46 1570.2 586.585 1570.2 595.37H1541.97C1541.97 586.583 1548.29 579.46 1556.08 579.46Z" fill="#3EAD26"/>
<path opacity="0.1" d="M1556.08 579.46C1563.88 579.46 1570.2 586.585 1570.2 595.37H1556.08V579.46Z" fill="white"/>
<path d="M1572.42 579.474C1580.21 579.474 1586.52 586.591 1586.52 595.368H1558.31C1558.31 586.591 1564.63 579.474 1572.42 579.474Z" fill="#299113"/>
<path opacity="0.1" d="M1572.42 579.474C1580.21 579.474 1586.52 586.591 1586.52 595.368H1572.42V579.474Z" fill="white"/>
<path d="M1760.68 603C1771.65 603 1780.54 613.014 1780.54 625.37H1740.83C1740.83 613.014 1749.72 603 1760.68 603Z" fill="#3EAD26"/>
<path opacity="0.1" d="M1760.68 603C1771.65 603 1780.54 613.014 1780.54 625.37H1760.68V603Z" fill="white"/>
<path d="M1735.12 609.46C1742.92 609.46 1749.24 616.585 1749.24 625.37H1721C1721 616.583 1727.32 609.46 1735.12 609.46Z" fill="#3EAD26"/>
<path opacity="0.1" d="M1735.12 609.46C1742.92 609.46 1749.24 616.585 1749.24 625.37H1735.12V609.46Z" fill="white"/>
<path d="M1751.45 609.474C1759.24 609.474 1765.56 616.591 1765.56 625.368H1737.34C1737.34 616.591 1743.66 609.474 1751.45 609.474Z" fill="#299113"/>
<path opacity="0.1" d="M1751.45 609.474C1759.24 609.474 1765.56 616.591 1765.56 625.368H1751.45V609.474Z" fill="white"/>
<path d="M1673.94 568C1684.91 568 1693.8 578.014 1693.8 590.37H1654.09C1654.09 578.014 1662.98 568 1673.94 568Z" fill="#3EAD26"/>
<path opacity="0.1" d="M1673.94 568C1684.91 568 1693.8 578.014 1693.8 590.37H1673.94V568Z" fill="white"/>
<path d="M1648.38 574.46C1656.18 574.46 1662.5 581.585 1662.5 590.37H1634.26C1634.26 581.583 1640.58 574.46 1648.38 574.46Z" fill="#3EAD26"/>
<path opacity="0.1" d="M1648.38 574.46C1656.18 574.46 1662.5 581.585 1662.5 590.37H1648.38V574.46Z" fill="white"/>
<path d="M1664.71 574.474C1672.5 574.474 1678.82 581.591 1678.82 590.368H1650.6C1650.6 581.591 1656.92 574.474 1664.71 574.474Z" fill="#299113"/>
<path opacity="0.1" d="M1664.71 574.474C1672.5 574.474 1678.82 581.591 1678.82 590.368H1664.71V574.474Z" fill="white"/>
<path d="M1382.46 572.27C1394.41 572.27 1404.1 583.187 1404.1 596.653H1360.82C1360.82 583.187 1370.51 572.27 1382.46 572.27Z" fill="#3EAD26"/>
<path opacity="0.1" d="M1382.46 572.27C1394.41 572.27 1404.1 583.187 1404.1 596.653H1382.46V572.27Z" fill="white"/>
<path d="M1354.6 579.312C1363.1 579.312 1369.99 587.076 1369.99 596.653H1339.21C1339.21 587.076 1346.1 579.312 1354.6 579.312Z" fill="#3EAD26"/>
<path opacity="0.1" d="M1354.6 579.312C1363.1 579.312 1369.99 587.076 1369.99 596.653H1354.6V579.312Z" fill="white"/>
<path d="M1372.4 579.328C1380.89 579.328 1387.77 587.084 1387.77 596.653H1357.02C1357.02 587.084 1363.91 579.328 1372.4 579.328Z" fill="#299113"/>
<path opacity="0.1" d="M1372.4 579.328C1380.89 579.328 1387.77 587.084 1387.77 596.653H1372.4V579.328Z" fill="white"/>
<path d="M644.908 584.504C644.908 585.703 643.936 586.675 642.738 586.675C641.539 586.675 640.567 585.704 640.567 584.504V559.668C640.567 558.47 641.538 557.497 642.738 557.497C643.936 557.497 644.908 558.469 644.908 559.668V584.504Z" fill="#FF7526"/>
<path d="M645.422 551.434H662.994L645.178 533.613H656.161L642.737 513L629.314 533.613H640.297L622.481 551.434H640.053L619.674 569.363H642.737H665.801L645.422 551.434Z" fill="#3EAD26"/>
<path opacity="0.1" d="M642.737 513L629.314 533.613H640.296L622.481 551.434H640.053L619.674 569.363H640.567V584.504C640.567 585.703 641.538 586.675 642.738 586.675L642.737 513Z" fill="white"/>
<path d="M709.544 584.983C709.544 586.106 708.688 587.018 707.63 587.018C706.573 587.018 705.716 586.106 705.716 584.983V561.353C705.716 560.229 706.573 559.318 707.63 559.318C708.688 559.318 709.544 560.229 709.544 561.353V584.983Z" fill="#FF7526"/>
<path d="M709.998 553.635H725.497L709.783 536.932H719.469L707.63 517.613L695.79 536.932H705.477L689.763 553.635H705.263L687.288 570.44H707.63H727.972L709.998 553.635Z" fill="#3EAD26"/>
<path opacity="0.1" d="M707.63 517.613L695.79 536.932H705.477L689.763 553.635H705.261L687.288 570.44H705.716V584.983C705.716 586.106 706.573 587.017 707.63 587.017V517.613Z" fill="white"/>
<path d="M672.759 590.421C672.759 591.436 671.937 592.259 670.92 592.259C669.905 592.259 669.083 591.436 669.083 590.421V568.058C669.083 567.043 669.905 566.22 670.92 566.22C671.936 566.22 672.759 567.043 672.759 568.058V590.421Z" fill="#FF7526"/>
<path d="M673.194 561.085H688.077L672.987 545.991H682.289L670.92 528.534L659.552 545.991H668.854L653.765 561.085H668.647L651.389 576.269H670.92H690.453L673.194 561.085Z" fill="#299113"/>
<path opacity="0.1" d="M670.92 528.534L659.552 545.991H668.854L653.766 561.085H668.648L651.389 576.269H669.083V590.421C669.083 591.436 669.905 592.258 670.92 592.258V528.534Z" fill="white"/>
<path d="M610.36 582.3C610.36 583.124 609.691 583.793 608.867 583.793C608.042 583.793 607.374 583.124 607.374 582.3V563.14C607.374 562.316 608.042 561.647 608.867 561.647C609.691 561.647 610.36 562.316 610.36 563.14V582.3Z" fill="#FF7526"/>
<path d="M610.713 557.477H622.799L610.545 545.22H618.099L608.867 531.041L599.634 545.22H607.188L594.934 557.477H607.02L593.004 569.808H608.867H624.73L610.713 557.477Z" fill="#299113"/>
<path opacity="0.1" d="M608.867 531.041L599.634 545.22H607.188L594.934 557.477H607.021L593.004 569.808H607.374V582.3C607.374 583.125 608.042 583.793 608.867 583.793V531.041Z" fill="white"/>
<path d="M737.331 586.937C737.331 587.763 736.663 588.431 735.839 588.431C735.014 588.431 734.346 587.763 734.346 586.937V567.777C734.346 566.952 735.014 566.283 735.839 566.283C736.663 566.283 737.331 566.952 737.331 567.777V586.937Z" fill="#FF7526"/>
<path d="M737.685 562.113H749.771L737.517 549.855H745.07L735.837 535.679L726.606 549.855H734.159L721.905 562.113H733.991L719.974 574.446H735.837H751.702L737.685 562.113Z" fill="#299113"/>
<path opacity="0.1" d="M735.837 535.679L726.606 549.855H734.159L721.905 562.113H733.991L719.974 574.446H734.345V586.937C734.345 587.762 735.013 588.43 735.837 588.43V535.679Z" fill="white"/>
<path d="M606.225 575.869C598.043 575.869 591.412 582.501 591.412 590.682H621.038C621.038 582.501 614.405 575.869 606.225 575.869Z" fill="#3EAD26"/>
<path opacity="0.1" d="M606.225 575.869C598.043 575.869 591.412 582.501 591.412 590.682H606.225V575.869Z" fill="white"/>
<path d="M627.959 580.148C622.141 580.148 617.424 584.864 617.424 590.681H638.493C638.493 584.864 633.776 580.148 627.959 580.148Z" fill="#3EAD26"/>
<path opacity="0.1" d="M627.959 580.148C622.141 580.148 617.424 584.864 617.424 590.681H627.959V580.148Z" fill="white"/>
<path d="M615.773 580.158C609.96 580.158 605.248 584.87 605.248 590.683H626.298C626.298 584.87 621.586 580.158 615.773 580.158Z" fill="#299113"/>
<path opacity="0.1" d="M615.773 580.158C609.96 580.158 605.248 584.87 605.248 590.683H615.773V580.158Z" fill="white"/>
<path d="M750.111 579.167C756.905 579.167 762.412 584.673 762.412 591.467H737.811C737.811 584.673 743.318 579.167 750.111 579.167Z" fill="#3EAD26"/>
<path opacity="0.1" d="M750.111 579.167C756.905 579.167 762.412 584.673 762.412 591.467H750.111V579.167Z" fill="white"/>
<path d="M734.272 582.719C739.104 582.719 743.02 586.637 743.02 591.467H725.525C725.525 586.635 729.441 582.719 734.272 582.719Z" fill="#3EAD26"/>
<path opacity="0.1" d="M734.272 582.719C739.104 582.719 743.02 586.637 743.02 591.467H734.272V582.719Z" fill="white"/>
<path d="M744.391 582.726C749.218 582.726 753.131 586.64 753.131 591.466H735.651C735.651 586.64 739.564 582.726 744.391 582.726Z" fill="#299113"/>
<path opacity="0.1" d="M744.391 582.726C749.218 582.726 753.131 586.639 753.131 591.465H744.391V582.726Z" fill="white"/>
<path d="M682.831 583.528C690.236 583.528 696.238 589.531 696.238 596.935H669.423C669.423 589.531 675.426 583.528 682.831 583.528Z" fill="#3EAD26"/>
<path opacity="0.1" d="M682.831 583.528C690.236 583.528 696.238 589.531 696.238 596.935H682.831V583.528Z" fill="white"/>
<path d="M665.566 587.4C670.832 587.4 675.101 591.669 675.101 596.935H656.031C656.031 591.669 660.3 587.4 665.566 587.4Z" fill="#3EAD26"/>
<path opacity="0.1" d="M665.566 587.4C670.832 587.4 675.101 591.669 675.101 596.934H665.566V587.4Z" fill="white"/>
<path d="M676.596 587.409C681.857 587.409 686.122 591.673 686.122 596.935H667.07C667.07 591.673 671.334 587.409 676.596 587.409Z" fill="#299113"/>
<path opacity="0.1" d="M676.596 587.408C681.857 587.408 686.122 591.673 686.122 596.934H676.596V587.408Z" fill="white"/>
<path d="M497.628 578.899C497.628 580.171 498.66 581.203 499.932 581.203C501.204 581.203 502.236 580.172 502.236 578.899V552.536C502.236 551.264 501.205 550.231 499.932 550.231C498.66 550.231 497.628 551.263 497.628 552.536V578.899Z" fill="#FF7526"/>
<path d="M497.082 543.796H478.431L497.342 524.88H485.684L499.933 503L514.181 524.88H502.523L521.434 543.796H502.781L524.413 562.827H499.933H475.451L497.082 543.796Z" fill="#3EAD26"/>
<path opacity="0.1" d="M499.933 503L514.181 524.88H502.524L521.434 543.796H502.781L524.413 562.827H502.236V578.899C502.236 580.171 501.205 581.203 499.932 581.203L499.933 503Z" fill="white"/>
<path d="M348.909 582.659C348.909 583.466 349.563 584.121 350.37 584.121C351.177 584.121 351.831 583.467 351.831 582.659V565.937C351.831 565.13 351.178 564.475 350.37 564.475C349.563 564.475 348.909 565.13 348.909 565.937V582.659Z" fill="#FF7526"/>
<path d="M348.562 560.394H336.732L348.727 548.394H341.332L350.371 534.516L359.408 548.394H352.014L364.009 560.394H352.178L365.898 572.465H350.371H334.841L348.562 560.394Z" fill="#3EAD26"/>
<path opacity="0.1" d="M350.371 534.516L359.408 548.395H352.014L364.009 560.394H352.178L365.898 572.465H351.831V582.659C351.831 583.466 351.178 584.121 350.37 584.121L350.371 534.516Z" fill="white"/>
<path d="M430.074 574.739C430.074 575.931 430.984 576.899 432.106 576.899C433.228 576.899 434.138 575.931 434.138 574.739V549.657C434.138 548.463 433.228 547.497 432.106 547.497C430.984 547.497 430.074 548.463 430.074 549.657V574.739Z" fill="#FF7526"/>
<path d="M429.593 541.465H413.141L429.821 523.736H419.539L432.106 503.229L444.673 523.736H434.392L451.072 541.465H434.619L453.698 559.303H432.106H410.513L429.593 541.465Z" fill="#3EAD26"/>
<path opacity="0.1" d="M432.106 503.229L444.673 523.736H434.392L451.072 541.465H434.62L453.698 559.303H434.138V574.739C434.138 575.931 433.228 576.899 432.106 576.899V503.229Z" fill="white"/>
<path d="M534.3 576.56C534.3 577.435 535.009 578.144 535.884 578.144C536.759 578.144 537.469 577.435 537.469 576.56V556.222C537.469 555.347 536.759 554.638 535.884 554.638C535.009 554.638 534.3 555.347 534.3 556.222V576.56Z" fill="#FF7526"/>
<path d="M533.925 550.211H521.096L534.103 537.2H526.085L535.884 522.15L545.685 537.2H537.667L550.674 550.211H537.845L552.722 563.3H535.884H519.046L533.925 550.211Z" fill="#299113"/>
<path opacity="0.1" d="M535.884 522.15L545.685 537.2H537.667L550.674 550.211H537.844L552.722 563.3H537.469V576.56C537.469 577.435 536.759 578.144 535.884 578.144V522.15Z" fill="white"/>
<path d="M399.524 581.481C399.524 582.357 400.234 583.066 401.109 583.066C401.984 583.066 402.693 582.357 402.693 581.481V561.143C402.693 560.267 401.984 559.558 401.109 559.558C400.234 559.558 399.524 560.267 399.524 561.143V581.481Z" fill="#FF7526"/>
<path d="M399.149 555.132H386.32L399.328 542.12H391.31L401.11 527.073L410.909 542.12H402.891L415.899 555.132H403.07L417.948 568.222H401.11H384.271L399.149 555.132Z" fill="#299113"/>
<path opacity="0.1" d="M401.11 527.073L410.909 542.12H402.891L415.899 555.132H403.07L417.948 568.222H402.694V581.481C402.694 582.357 401.985 583.066 401.11 583.066V527.073Z" fill="white"/>
<path d="M538.688 569.733C547.373 569.733 554.412 576.772 554.412 585.456H522.965C522.965 576.772 530.005 569.733 538.688 569.733Z" fill="#3EAD26"/>
<path opacity="0.1" d="M538.688 569.733C547.373 569.733 554.412 576.772 554.412 585.456H538.688V569.733Z" fill="white"/>
<path d="M515.619 574.275C521.794 574.275 526.801 579.281 526.801 585.456H504.438C504.438 579.281 509.444 574.275 515.619 574.275Z" fill="#3EAD26"/>
<path opacity="0.1" d="M515.619 574.275C521.794 574.275 526.801 579.281 526.801 585.456H515.619V574.275Z" fill="white"/>
<path d="M528.554 574.285C534.724 574.285 539.726 579.287 539.726 585.457H517.382C517.382 579.287 522.383 574.285 528.554 574.285Z" fill="#299113"/>
<path opacity="0.1" d="M528.554 574.285C534.724 574.285 539.726 579.287 539.726 585.457H528.554V574.285Z" fill="white"/>
<path d="M385.959 573.234C378.748 573.234 372.902 579.078 372.902 586.29H399.015C399.015 579.078 393.17 573.234 385.959 573.234Z" fill="#3EAD26"/>
<path opacity="0.1" d="M385.959 573.234C378.748 573.234 372.902 579.078 372.902 586.29H385.959V573.234Z" fill="white"/>
<path d="M402.771 577.004C397.643 577.004 393.485 581.163 393.485 586.29H412.057C412.057 581.162 407.899 577.004 402.771 577.004Z" fill="#3EAD26"/>
<path opacity="0.1" d="M402.771 577.004C397.643 577.004 393.485 581.163 393.485 586.29H402.771V577.004Z" fill="white"/>
<path d="M392.03 577.012C386.907 577.012 382.754 581.166 382.754 586.289H401.308C401.308 581.166 397.154 577.012 392.03 577.012Z" fill="#299113"/>
<path opacity="0.1" d="M392.03 577.012C386.907 577.012 382.754 581.166 382.754 586.289H392.03V577.012Z" fill="white"/>
<path d="M326.378 578.289C319.166 578.289 313.32 584.133 313.32 591.345H339.434C339.434 584.133 333.588 578.289 326.378 578.289Z" fill="#3EAD26"/>
<path opacity="0.1" d="M326.378 578.289C319.166 578.289 313.32 584.133 313.32 591.345H326.378V578.289Z" fill="white"/>
<path d="M343.189 582.059C338.061 582.059 333.904 586.217 333.904 591.345H352.475C352.475 586.216 348.318 582.059 343.189 582.059Z" fill="#3EAD26"/>
<path opacity="0.1" d="M343.189 582.059C338.061 582.059 333.904 586.217 333.904 591.345H343.189V582.059Z" fill="white"/>
<path d="M332.449 582.067C327.325 582.067 323.172 586.221 323.172 591.344H341.726C341.726 586.221 337.572 582.067 332.449 582.067Z" fill="#299113"/>
<path opacity="0.1" d="M332.449 582.067C327.325 582.067 323.172 586.221 323.172 591.344H332.449V582.067Z" fill="white"/>
<path d="M180.469 570.118C173.258 570.118 167.412 575.962 167.412 583.174H193.525C193.525 575.962 187.68 570.118 180.469 570.118Z" fill="#3EAD26"/>
<path opacity="0.1" d="M180.469 570.118C173.258 570.118 167.412 575.962 167.412 583.174H180.469V570.118Z" fill="white"/>
<path d="M197.281 573.888C192.153 573.888 187.995 578.047 187.995 583.174H206.567C206.567 578.046 202.409 573.888 197.281 573.888Z" fill="#3EAD26"/>
<path opacity="0.1" d="M197.281 573.888C192.152 573.888 187.995 578.047 187.995 583.174H197.281V573.888Z" fill="white"/>
<path d="M186.54 573.896C181.416 573.896 177.264 578.05 177.264 583.173H195.818C195.818 578.05 191.664 573.896 186.54 573.896Z" fill="#299113"/>
<path opacity="0.1" d="M186.54 573.896C181.416 573.896 177.264 578.05 177.264 583.173H186.54V573.896Z" fill="white"/>
<path d="M565.469 588C558.258 588 552.412 593.845 552.412 601.056H578.525C578.525 593.845 572.68 588 565.469 588Z" fill="#3EAD26"/>
<path opacity="0.1" d="M565.469 588C558.258 588 552.412 593.845 552.412 601.056H565.469V588Z" fill="white"/>
<path d="M582.281 591.771C577.153 591.771 572.995 595.929 572.995 601.056H591.567C591.567 595.928 587.409 591.771 582.281 591.771Z" fill="#3EAD26"/>
<path opacity="0.1" d="M582.281 591.771C577.152 591.771 572.995 595.929 572.995 601.056H582.281V591.771Z" fill="white"/>
<path d="M571.54 591.779C566.416 591.779 562.264 595.932 562.264 601.055H580.818C580.818 595.932 576.664 591.779 571.54 591.779Z" fill="#299113"/>
<path opacity="0.1" d="M571.54 591.779C566.416 591.779 562.264 595.932 562.264 601.055H571.54V591.779Z" fill="white"/>
<path d="M265.68 575.371C258.468 575.371 252.623 581.215 252.623 588.427H278.736C278.736 581.215 272.89 575.371 265.68 575.371Z" fill="#3EAD26"/>
<path opacity="0.1" d="M265.68 575.371C258.468 575.371 252.623 581.215 252.623 588.427H265.68V575.371Z" fill="white"/>
<path d="M282.492 579.141C277.363 579.141 273.206 583.299 273.206 588.427H291.777C291.777 583.298 287.62 579.141 282.492 579.141Z" fill="#3EAD26"/>
<path opacity="0.1" d="M282.492 579.141C277.363 579.141 273.206 583.299 273.206 588.427H282.492V579.141Z" fill="white"/>
<path d="M271.751 579.149C266.627 579.149 262.474 583.303 262.474 588.426H281.028C281.028 583.303 276.875 579.149 271.751 579.149Z" fill="#299113"/>
<path opacity="0.1" d="M271.751 579.149C266.627 579.149 262.474 583.303 262.474 588.426H271.751V579.149Z" fill="white"/>
<path d="M457.374 577.862C449.514 577.862 443.143 584.234 443.143 592.093H471.606C471.606 584.234 465.234 577.862 457.374 577.862Z" fill="#3EAD26"/>
<path opacity="0.1" d="M457.374 577.862C449.514 577.862 443.143 584.234 443.143 592.093H457.374V577.862Z" fill="white"/>
<path d="M475.7 581.973C470.111 581.973 465.579 586.504 465.579 592.093H485.821C485.821 586.504 481.29 581.973 475.7 581.973Z" fill="#3EAD26"/>
<path opacity="0.1" d="M475.7 581.973C470.111 581.973 465.58 586.504 465.58 592.093H475.7V581.973Z" fill="white"/>
<path d="M463.993 581.982C458.408 581.982 453.881 586.509 453.881 592.093H474.104C474.104 586.509 469.578 581.982 463.993 581.982Z" fill="#299113"/>
<path opacity="0.1" d="M463.993 581.982C458.408 581.982 453.881 586.509 453.881 592.093H463.993V581.982Z" fill="white"/>
</svg>
